<svg width="1609" height="228" viewBox="0 0 1609 228" fill="none" xmlns="http://www.w3.org/2000/svg">
<path d="M1588.17 32.5406H1598.27V50.1682L1588.17 32.5406ZM1558.71 22.4223V1.41021L1570.77 22.4223H1558.71ZM1514.54 51.3317H1525.27V32.5406H1544.14V22.4223H1525.27V0H1514.54V51.3317ZM1484.41 51.3317H1495.14V10.1183H1510.55V0H1469V10.1183H1484.41V51.3317ZM1597.54 51.3317H1609V48.5112C1609 35.22 1601.03 22.4576 1585.69 22.4576H1582.4L1574.16 8.14396C1571.01 2.6794 1566.54 0.0352547 1559.3 0.0352547H1548.02V51.3669H1558.75V32.5759H1576.6L1582.68 43.2582C1585.83 48.6875 1590.34 51.3317 1597.54 51.3317Z" fill="#F21352"/>
<rect x="2.25" y="53.25" width="125.5" height="15.5" rx="7.75" stroke="#F21352" stroke-width="4.5"/>
<rect x="2.25" y="110.879" width="91.9286" height="15.5" rx="7.75" stroke="#F21352" stroke-width="4.5"/>
<rect x="2.25" y="169.25" width="125.5" height="15.5" rx="7.75" fill="#F21352" stroke="#F21352" stroke-width="4.5"/>
<path d="M1584.77 193.995C1574.26 193.995 1564.95 190.271 1560.16 188.01V180.562C1567.48 184.951 1576.92 187.877 1584.77 187.877C1595.54 187.877 1602.06 182.557 1602.06 174.71C1602.06 166.863 1597.14 162.341 1583.57 158.351C1566.94 153.43 1560.29 147.445 1560.29 136.938C1560.29 125.367 1569.6 118.584 1583.57 118.584C1592.61 118.584 1600.46 120.978 1605.25 123.106V130.554C1597.4 126.431 1591.15 124.702 1583.57 124.702C1573.33 124.702 1566.94 129.091 1566.94 136.938C1566.94 144.12 1571.73 148.376 1585.3 152.366C1601.79 157.154 1608.71 163.538 1608.71 174.71C1608.71 186.148 1599.4 193.995 1584.77 193.995Z" fill="#F21352"/>
<path d="M1421.12 192H1414.47V120.446H1420.46V136.273C1424.58 127.894 1433.49 118.85 1447.06 118.85C1462.22 118.85 1467.94 129.357 1470.47 134.943C1472.06 130.687 1479.25 118.85 1497.07 118.85C1515.02 118.85 1525.53 130.687 1525.53 149.706V192H1518.88V149.972C1518.88 135.076 1512.36 124.968 1497.07 124.968C1482.17 124.968 1473.26 135.342 1473.26 150.105V192H1466.61V149.972C1466.61 137.869 1461.02 124.968 1447.06 124.968C1432.56 124.968 1421.12 139.598 1421.12 157.42V192Z" fill="#F21352"/>
<path d="M1379.59 154.893H1318.41V156.622C1318.41 173.247 1329.58 187.611 1347.8 187.611C1360.3 187.611 1368.95 181.759 1375.46 176.173V184.153C1372.8 186.281 1363.1 193.729 1347.53 193.729C1326.25 193.729 1311.76 176.838 1311.76 156.622C1311.76 135.874 1325.99 118.717 1346.87 118.717C1367.62 118.717 1379.85 135.342 1379.85 149.174C1379.85 151.435 1379.72 153.164 1379.59 154.893ZM1346.87 124.835C1333.57 124.835 1322.26 134.278 1319.21 148.775H1373.2C1373.2 136.938 1362.3 124.835 1346.87 124.835Z" fill="#F21352"/>
<path d="M1281.47 192.798C1267.9 192.798 1258.33 185.882 1258.33 169.39V126.564H1240.5V120.446H1258.33V103.422H1264.98V120.446H1289.85V126.564H1264.98V169.39C1264.98 181.227 1270.3 186.68 1281.47 186.68C1284.39 186.68 1287.45 186.015 1289.85 185.35V191.601C1287.32 192.399 1284.26 192.798 1281.47 192.798Z" fill="#F21352"/>
<path d="M1193.88 193.995C1183.37 193.995 1174.06 190.271 1169.27 188.01V180.562C1176.59 184.951 1186.03 187.877 1193.88 187.877C1204.65 187.877 1211.17 182.557 1211.17 174.71C1211.17 166.863 1206.25 162.341 1192.68 158.351C1176.05 153.43 1169.4 147.445 1169.4 136.938C1169.4 125.367 1178.71 118.584 1192.68 118.584C1201.72 118.584 1209.57 120.978 1214.36 123.106V130.554C1206.51 126.431 1200.26 124.702 1192.68 124.702C1182.44 124.702 1176.05 129.091 1176.05 136.938C1176.05 144.12 1180.84 148.376 1194.41 152.366C1210.9 157.154 1217.82 163.538 1217.82 174.71C1217.82 186.148 1208.51 193.995 1193.88 193.995Z" fill="#F21352"/>
<path d="M1098.24 227.112H1091.19L1107.95 189.739L1076.96 120.446H1084.28L1111.27 182.291L1138.67 120.446H1145.99L1115.13 188.409L1098.24 227.112Z" fill="#F21352"/>
<path d="M1023.6 194.261C1008.17 194.261 996.597 186.68 990.745 181.892V173.114C997.927 180.695 1009.63 188.143 1023.6 188.143C1038.76 188.143 1051.13 179.365 1051.13 164.336C1051.13 148.908 1038.76 142.923 1023.2 137.603C1007.64 132.283 992.207 125.5 992.207 107.013C992.207 89.457 1008.03 80.147 1023.6 80.147C1038.76 80.147 1047.93 85.866 1053.65 90.255V98.9C1045.81 91.186 1036.76 86.265 1023.6 86.265C1010.83 86.265 998.857 92.782 998.857 107.013C998.857 121.244 1010.16 126.165 1025.72 131.618C1041.28 137.071 1057.78 144.386 1057.78 164.203C1057.78 183.222 1040.62 194.261 1023.6 194.261Z" fill="#F21352"/>
<path d="M872.599 193.729C852.383 193.729 835.758 176.971 835.758 156.223C835.758 135.475 852.383 118.717 872.599 118.717C886.165 118.717 897.603 126.963 902.923 136.273C902.79 130.554 902.258 124.436 902.258 117.52V77.62H908.908V192H902.923V176.173C897.603 185.483 886.165 193.729 872.599 193.729ZM872.599 187.611C889.224 187.611 902.79 173.38 902.79 156.223C902.79 139.066 889.224 124.835 872.599 124.835C855.841 124.835 842.408 139.066 842.408 156.223C842.408 173.38 855.841 187.611 872.599 187.611Z" fill="#F21352"/>
<path d="M807.521 154.893H746.341V156.622C746.341 173.247 757.513 187.611 775.734 187.611C788.236 187.611 796.881 181.759 803.398 176.173V184.153C800.738 186.281 791.029 193.729 775.468 193.729C754.188 193.729 739.691 176.838 739.691 156.622C739.691 135.874 753.922 118.717 774.803 118.717C795.551 118.717 807.787 135.342 807.787 149.174C807.787 151.435 807.654 153.164 807.521 154.893ZM774.803 124.835C761.503 124.835 750.198 134.278 747.139 148.775H801.137C801.137 136.938 790.231 124.835 774.803 124.835Z" fill="#F21352"/>
<path d="M668.776 193.729C648.56 193.729 631.935 176.971 631.935 156.223C631.935 135.475 648.56 118.717 668.776 118.717C682.342 118.717 693.78 126.963 699.1 136.273C698.967 130.554 698.435 124.436 698.435 117.52V77.62H705.085V192H699.1V176.173C693.78 185.483 682.342 193.729 668.776 193.729ZM668.776 187.611C685.401 187.611 698.967 173.38 698.967 156.223C698.967 139.066 685.401 124.835 668.776 124.835C652.018 124.835 638.585 139.066 638.585 156.223C638.585 173.38 652.018 187.611 668.776 187.611Z" fill="#F21352"/>
<path d="M561.021 193.729C540.805 193.729 524.18 176.971 524.18 156.223C524.18 135.475 540.805 118.717 561.021 118.717C574.587 118.717 586.025 126.963 591.345 136.273C591.212 130.554 590.68 124.436 590.68 117.52V77.62H597.33V192H591.345V176.173C586.025 185.483 574.587 193.729 561.021 193.729ZM561.021 187.611C577.646 187.611 591.212 173.38 591.212 156.223C591.212 139.066 577.646 124.835 561.021 124.835C544.263 124.835 530.829 139.066 530.829 156.223C530.829 173.38 544.263 187.611 561.021 187.611Z" fill="#F21352"/>
<path d="M495.943 154.893H434.763V156.622C434.763 173.247 445.935 187.611 464.156 187.611C476.658 187.611 485.303 181.759 491.82 176.173V184.153C489.16 186.281 479.451 193.729 463.89 193.729C442.61 193.729 428.113 176.838 428.113 156.622C428.113 135.874 442.344 118.717 463.225 118.717C483.973 118.717 496.209 135.342 496.209 149.174C496.209 151.435 496.076 153.164 495.943 154.893ZM463.225 124.835C449.925 124.835 438.62 134.278 435.561 148.775H489.559C489.559 136.938 478.653 124.835 463.225 124.835Z" fill="#F21352"/>
<path d="M363.316 193.729C349.75 193.729 338.312 185.483 332.992 176.173V192H327.007V77.62H333.657V117.52C333.657 124.436 333.125 130.554 332.992 136.273C338.312 126.963 349.75 118.717 363.316 118.717C383.532 118.717 400.157 135.475 400.157 156.223C400.157 176.971 383.532 193.729 363.316 193.729ZM363.316 187.611C380.074 187.611 393.507 173.38 393.507 156.223C393.507 139.066 380.074 124.835 363.316 124.835C346.691 124.835 333.125 139.066 333.125 156.223C333.125 173.38 346.691 187.611 363.316 187.611Z" fill="#F21352"/>
<path d="M182.65 192H176V120.446H181.985V136.273C186.108 127.894 195.019 118.85 208.585 118.85C223.747 118.85 229.466 129.357 231.993 134.943C233.589 130.687 240.771 118.85 258.593 118.85C276.548 118.85 287.055 130.687 287.055 149.706V192H280.405V149.972C280.405 135.076 273.888 124.968 258.593 124.968C243.697 124.968 234.786 135.342 234.786 150.105V192H228.136V149.972C228.136 137.869 222.55 124.968 208.585 124.968C194.088 124.968 182.65 139.598 182.65 157.42V192Z" fill="#F21352"/>
</svg>
